PathFileType	4	(X/Y/Z)	 s04c0203.trc
DataRate	CameraRate	NumFrames	NumMarkers	Units	OrigDataRate	OrigDataStartFrame	OrigNumFrames
200	200	5	50	mm	200	1001	2000
Frame#	Time	racr			lacr			c7			jug			rlel			rdr			llel			ldr			s2			lic			ric			lasi			rasi			rpsi			lpsi			rgt			lgt			rth1			rth2			rth3			rth4			rlfc			rmfc			rsh1			rsh2			rsh3			rsh4			rlmal			rmmal			rcal			rtoe			rmt5			lth1			lth2			lth4			lth3			llfc			lmfc			lsh1			lsh2			lsh3			lsh4			llmal			lmmal			lcal			ltoe			lmt5			SBIKE			LBIKE			RBIKE			
		X1	Y1	Z1	X2	Y2	Z2	X3	Y3	Z3	X4	Y4	Z4	X5	Y5	Z5	X6	Y6	Z6	X7	Y7	Z7	X8	Y8	Z8	X9	Y9	Z9	X10	Y10	Z10	X11	Y11	Z11	X12	Y12	Z12	X13	Y13	Z13	X14	Y14	Z14	X15	Y15	Z15	X16	Y16	Z16	X17	Y17	Z17	X18	Y18	Z18	X19	Y19	Z19	X20	Y20	Z20	X21	Y21	Z21	X22	Y22	Z22	X23	Y23	Z23	X24	Y24	Z24	X25	Y25	Z25	X26	Y26	Z26	X27	Y27	Z27	X28	Y28	Z28	X29	Y29	Z29	X30	Y30	Z30	X31	Y31	Z31	X32	Y32	Z32	X33	Y33	Z33	X34	Y34	Z34	X35	Y35	Z35	X36	Y36	Z36	X37	Y37	Z37	X38	Y38	Z38	X39	Y39	Z39	X40	Y40	Z40	X41	Y41	Z41	X42	Y42	Z42	X43	Y43	Z43	X44	Y44	Z44	X45	Y45	Z45	X46	Y46	Z46	X47	Y47	Z47	X48	Y48	Z48	X49	Y49	Z49	X50	Y50	Z50	
1001	5.0050	509.777903	1339.081203	-85.999081	516.835136	1348.529799	-351.366273	482.537597	1412.085517	-223.406711	441.212215	1255.617588	-230.177169	463.066358	1059.015514	71.200389	679.710017	933.440973	-84.852568	486.387347	1126.551126	-550.187839	677.411324	937.884151	-446.153451	-69.771966	1176.134417	-300.348360	100.100850	1186.911455	-440.403968	55.686012	1204.752643	-127.067119	138.341735	1141.802170	-388.990302	113.825736	1172.141524	-159.388117	-50.202770	1224.668804	-259.888634	-41.137403	1223.551206	-334.008746	25.186591	1163.498142	-107.024342	63.195339	1086.606631	-467.117881	164.388535	1094.658209	-91.177947	251.061314	1079.373570	-100.278419	319.462373	1028.774934	-97.716321	262.374846	1109.286730	-120.650303	444.049653	952.284702	-118.014511	432.387330	928.359682	-232.642231	390.505938	846.105041	-95.124483	374.522484	756.522522	-104.972216	315.598613	693.457772	-110.805580	405.038063	744.896455	-125.567712	262.446308	545.831698	-115.946282	286.082320	550.006362	-199.516354	189.496552	522.743592	-155.166724	481.960536	458.051991	-144.923538	412.432378	443.047762	-89.234528	119.108533	1006.053714	-474.101024	188.482863	954.464861	-471.634633	214.489769	975.435755	-458.141870	224.311809	873.146200	-476.267118	292.273049	725.414587	-455.406759	315.048632	697.640021	-344.534344	245.502414	611.404743	-474.592103	217.012222	531.936682	-452.075933	152.360416	471.097268	-452.258894	240.024845	521.531449	-421.766513	69.647756	348.240019	-446.572250	67.660917	357.270254	-359.156078	-10.789263	364.844643	-407.281585	238.176231	186.701214	-401.667193	161.302842	197.779921	-465.228637	-176.891604	933.756951	-279.089612	-3.212692	85.875584	-484.518116	-14.956954	80.510245	-84.060338	
1002	5.0100	509.690990	1338.951716	-86.437904	516.724220	1347.430140	-351.742649	482.058507	1411.604557	-224.136766	440.956937	1255.028563	-230.319200	462.616513	1059.245999	71.310722	679.215757	933.587111	-84.626155	484.472660	1125.077451	-549.813622	676.304808	937.129142	-446.235818	-69.928322	1174.864959	-300.723460	100.119527	1185.621969	-439.631766	55.230718	1202.913521	-126.427491	138.292726	1140.834261	-388.032328	114.036784	1171.620511	-158.557171	-50.286321	1223.017482	-260.055825	-41.611739	1222.149726	-334.121940	24.565606	1159.666308	-106.924887	64.783379	1085.372591	-467.070511	163.920735	1086.378532	-91.206772	250.574685	1070.314106	-99.508956	317.676146	1018.609220	-97.616217	262.740703	1100.206451	-119.788668	441.324202	938.622982	-119.141640	428.392479	914.676695	-233.060747	388.822308	830.688932	-94.731776	374.018375	740.928121	-105.335755	315.838089	677.109206	-111.168486	404.417234	730.084420	-126.598281	263.270765	530.362176	-116.501893	285.729053	534.593390	-200.974779	190.248794	503.118814	-155.335178	486.003646	453.883506	-144.797967	417.356353	435.555497	-89.107070	121.901088	1005.988529	-473.519678	192.322744	955.706989	-470.473036	217.806494	976.985083	-456.681799	229.807029	875.251950	-475.017915	299.560357	729.628140	-453.696724	322.070101	702.372636	-342.394999	251.015852	616.927983	-472.918607	220.280147	538.263248	-450.411273	154.134422	479.043321	-451.003851	242.648437	527.534205	-419.662896	67.635357	358.818713	-445.909427	65.894048	367.433276	-358.427053	-12.375477	377.278594	-406.532451	231.396848	191.991358	-401.694239	154.760246	205.632270	-465.290599	-176.823019	933.640504	-279.023280	-3.212239	85.783398	-484.507469	-14.964984	80.439426	-84.033155	
1003	5.0150	509.666096	1338.925547	-86.936591	516.733036	1346.442634	-352.340446	481.688640	1411.156765	-224.991172	440.934432	1254.365505	-230.549492	462.107527	1059.612367	71.309815	678.790345	934.011404	-84.571737	482.571824	1123.455938	-549.314422	675.287929	936.276388	-446.368493	-70.000391	1173.392575	-300.996080	100.139010	1184.224744	-438.810330	55.190396	1200.823079	-125.080892	138.290989	1139.723683	-386.975314	114.297731	1171.050444	-157.714814	-51.412650	1221.844006	-259.568703	-41.456666	1220.581216	-334.402455	23.914136	1155.178002	-106.632746	66.403188	1084.044923	-466.928845	163.616246	1078.392871	-90.933537	250.064373	1060.673970	-99.109827	315.677910	1007.187568	-97.185736	262.966065	1090.530657	-118.607979	437.628995	924.601545	-120.002921	423.778759	900.478987	-232.605128	386.608079	814.654570	-94.735604	373.027207	724.721563	-106.236329	315.681138	660.196498	-112.208528	403.326093	714.484841	-127.942084	264.301027	513.990193	-117.960829	286.094321	519.240274	-202.408691	192.007414	484.058412	-156.628545	489.636681	448.606563	-144.209192	421.587156	427.072943	-88.764165	124.620598	1005.838662	-472.798604	195.951490	956.909702	-469.514295	220.931458	978.887056	-455.791314	235.014038	877.099236	-473.732953	306.232440	733.719430	-452.008951	326.788738	707.021376	-340.490199	256.260577	622.464975	-471.353590	223.467711	544.657451	-448.849360	155.885479	486.874545	-449.857734	245.083507	533.591758	-417.704050	65.642900	369.329762	-445.430772	63.854978	377.744684	-357.904039	-14.110009	389.699848	-406.183235	225.032069	198.419544	-401.776401	148.750738	214.133308	-465.304334	-176.709228	933.551860	-279.099400	-3.225328	85.721615	-484.526259	-14.970394	80.426606	-84.043646	
1004	5.0200	509.733291	1338.925176	-87.513689	516.773775	1345.570004	-353.015220	481.494241	1410.661168	-225.945904	441.271573	1253.652441	-230.847127	461.394731	1060.009330	71.273921	678.344275	934.540645	-84.413355	480.713451	1121.835931	-548.776897	674.528676	935.466747	-446.768802	-69.772921	1170.961617	-302.452148	100.366786	1182.802962	-438.026146	54.367180	1198.669127	-124.747750	138.493481	1138.590384	-386.250415	114.607836	1170.435995	-156.864404	-51.653475	1219.744180	-259.836112	-41.714217	1218.599920	-334.804502	23.418380	1150.585674	-105.975560	68.024514	1082.601922	-466.674369	163.349339	1069.998568	-90.510201	249.542741	1050.382765	-98.582913	313.941127	995.236997	-98.163512	263.146184	1080.446969	-117.227875	433.390294	910.353217	-120.648354	419.310935	886.098293	-233.051804	384.153477	797.814624	-95.390164	371.537866	708.091468	-107.752813	315.102847	642.808903	-113.673327	401.434267	698.563959	-129.685310	265.108650	497.827812	-119.109673	287.097165	503.776291	-203.370946	194.588405	465.506566	-158.329977	492.932384	441.928432	-143.421739	425.591242	417.941230	-88.458221	127.205807	1005.669438	-472.037305	199.327555	957.978718	-468.557357	223.963213	980.817965	-455.612374	239.788617	878.871404	-472.433830	312.311024	737.744354	-450.318501	330.999496	711.424793	-338.477964	261.241635	627.982072	-469.792553	226.312397	550.973450	-447.410106	157.382204	494.992215	-449.009305	247.441705	539.344026	-415.725896	63.579080	379.755070	-445.133292	61.580996	388.250270	-357.571407	-15.950371	401.809748	-406.086237	218.387924	204.781537	-401.256082	143.342534	223.011044	-465.302435	-176.357832	933.609622	-279.817160	-3.234828	85.640268	-484.564359	-14.965183	80.377555	-84.071864	
1005	5.0250	509.886999	1338.982794	-88.084848	516.934745	1344.833269	-353.743062	481.390270	1410.194739	-226.938834	441.487697	1253.304186	-231.313835	460.672855	1060.461601	71.187712	677.873505	935.140351	-84.114422	478.892136	1120.218948	-548.172407	673.942981	934.716620	-447.160432	-70.044236	1168.561948	-303.513109	100.397887	1181.250724	-437.097119	54.015030	1196.500517	-123.787262	138.554518	1137.308400	-385.161833	114.966355	1169.781836	-156.009304	-51.756139	1217.311211	-259.798736	-42.424059	1216.943800	-334.685456	22.986724	1145.463085	-105.325042	69.620035	1081.230850	-466.373024	163.482837	1061.421381	-90.091123	248.933227	1039.989902	-97.983734	312.060116	983.527534	-98.371314	263.332018	1070.192378	-115.551326	429.101281	895.771606	-120.938879	414.860819	871.625430	-233.058031	381.440930	781.046561	-95.491355	369.782894	691.288320	-109.386142	314.386720	625.374999	-115.077437	399.995960	682.428999	-131.766925	266.592522	481.745027	-120.004499	288.757832	488.845307	-204.229317	197.044718	448.325266	-159.014695	495.957522	434.495554	-143.164388	429.160036	408.245277	-88.343519	129.547370	1005.853707	-472.123015	202.459839	959.051276	-467.788084	226.735001	982.051592	-454.720940	244.174841	880.540223	-471.221121	318.008306	741.614890	-448.687736	335.838127	715.382761	-336.659231	265.715851	633.340701	-468.393393	228.781337	557.315806	-446.212637	158.382842	503.245580	-448.335805	249.294571	545.217048	-414.209359	61.440587	390.168240	-444.866315	59.355249	398.706735	-357.238374	-18.146931	413.799054	-405.723807	213.120807	212.706384	-401.279399	138.346236	232.227721	-465.283136	-176.381432	933.570436	-280.137105	-3.242121	85.541102	-484.614336	-14.962236	80.352299	-84.104209	
